/* XPM */
static char * map_floor_xpm[] = {
"32 32 774 2",
"  	c #60201E",
". 	c #642423",
"+ 	c #692A2A",
"@ 	c #6F3131",
"# 	c #6C2E2E",
"$ 	c #6D2F30",
"% 	c #6A2C2D",
"& 	c #652828",
"* 	c #5F2226",
"= 	c #6A292C",
"- 	c #612327",
"; 	c #612020",
"> 	c #602120",
", 	c #5C2022",
"' 	c #68272B",
") 	c #68282B",
"! 	c #622525",
"~ 	c #672929",
"{ 	c #6B2D2D",
"] 	c #6D2E30",
"^ 	c #6A2C2E",
"/ 	c #6A2B2D",
"( 	c #622728",
"_ 	c #6A2B2C",
": 	c #612729",
"< 	c #5F2222",
"[ 	c #622422",
"} 	c #5E2222",
"| 	c #6B2C2C",
"1 	c #67292A",
"2 	c #68251F",
"3 	c #6E2A25",
"4 	c #6F2B27",
"5 	c #712F2D",
"6 	c #733130",
"7 	c #6D2A28",
"8 	c #6B2624",
"9 	c #692723",
"0 	c #6A2A2C",
"a 	c #773134",
"b 	c #6B2B2E",
"c 	c #6D2928",
"d 	c #692523",
"e 	c #662527",
"f 	c #752F31",
"g 	c #773235",
"h 	c #662825",
"i 	c #6C2A28",
"j 	c #702E2D",
"k 	c #753130",
"l 	c #763432",
"m 	c #783635",
"n 	c #783634",
"o 	c #753432",
"p 	c #6A2C2C",
"q 	c #743131",
"r 	c #6D2D2F",
"s 	c #6C2928",
"t 	c #612323",
"u 	c #763333",
"v 	c #641F1D",
"w 	c #5D2020",
"x 	c #672627",
"y 	c #6A2929",
"z 	c #6F2929",
"A 	c #6F2A29",
"B 	c #6B2726",
"C 	c #682422",
"D 	c #6C2B2E",
"E 	c #773335",
"F 	c #662A2E",
"G 	c #6D2828",
"H 	c #6F2C2A",
"I 	c #672728",
"J 	c #773234",
"K 	c #763235",
"L 	c #5D2224",
"M 	c #692728",
"N 	c #6D292C",
"O 	c #6E2B2E",
"P 	c #6E2B2F",
"Q 	c #6D2A2E",
"R 	c #67282A",
"S 	c #5F2528",
"T 	c #652829",
"U 	c #753233",
"V 	c #6B2E30",
"W 	c #6D2929",
"X 	c #702D2B",
"Y 	c #5E2224",
"Z 	c #733131",
"` 	c #753334",
" .	c #783037",
"..	c #783139",
"+.	c #7D353E",
"@.	c #813A43",
"#.	c #833B44",
"$.	c #833A44",
"%.	c #7D343D",
"&.	c #7B343C",
"*.	c #692C2E",
"=.	c #6F2B2B",
"-.	c #702C2B",
";.	c #662627",
">.	c #763133",
",.	c #773536",
"'.	c #6A262F",
").	c #7A2D39",
"!.	c #80323F",
"~.	c #80313F",
"{.	c #843643",
"].	c #843844",
"^.	c #7C313C",
"/.	c #772F37",
"(.	c #66262A",
"_.	c #773435",
":.	c #713133",
"<.	c #6B2829",
"[.	c #712E2D",
"}.	c #642525",
"|.	c #753333",
"1.	c #783536",
"2.	c #702B31",
"3.	c #783138",
"4.	c #7A343B",
"5.	c #7D373E",
"6.	c #7C353D",
"7.	c #7D363E",
"8.	c #742E35",
"9.	c #773233",
"0.	c #68292C",
"a.	c #6F2C2C",
"b.	c #763233",
"c.	c #753132",
"d.	c #65222B",
"e.	c #742A34",
"f.	c #7A2E39",
"g.	c #7D313D",
"h.	c #7B303B",
"i.	c #7C313B",
"j.	c #7B333C",
"k.	c #773138",
"l.	c #7A3637",
"m.	c #743536",
"n.	c #702C2D",
"o.	c #702F2D",
"p.	c #682928",
"q.	c #793536",
"r.	c #7B3839",
"s.	c #692424",
"t.	c #682527",
"u.	c #69292B",
"v.	c #6F3032",
"w.	c #6D2D30",
"x.	c #6C2C2F",
"y.	c #642528",
"z.	c #6B2929",
"A.	c #702C2C",
"B.	c #642527",
"C.	c #6F2E2C",
"D.	c #682828",
"E.	c #6F2B2C",
"F.	c #632327",
"G.	c #69272A",
"H.	c #62262A",
"I.	c #602729",
"J.	c #662827",
"K.	c #6F2B2A",
"L.	c #6A2726",
"M.	c #6E3032",
"N.	c #702B2B",
"O.	c #722F2D",
"P.	c #672828",
"Q.	c #783535",
"R.	c #6F2B28",
"S.	c #73312F",
"T.	c #743230",
"U.	c #702D2C",
"V.	c #6F2D2B",
"W.	c #6B2A27",
"X.	c #6A2523",
"Y.	c #6E2A28",
"Z.	c #6C2929",
"`.	c #73302E",
" +	c #72312D",
".+	c #692624",
"++	c #6D2927",
"@+	c #6B2627",
"#+	c #712C2C",
"$+	c #753231",
"%+	c #75322F",
"&+	c #75322E",
"*+	c #712F29",
"=+	c #6C2B24",
"-+	c #66251D",
";+	c #672928",
">+	c #793535",
",+	c #6D2F31",
"'+	c #6E2A29",
")+	c #702D2A",
"!+	c #672827",
"~+	c #743132",
"{+	c #631F18",
"]+	c #60221E",
"^+	c #662724",
"/+	c #6A2B28",
"(+	c #6D2C27",
"_+	c #6C2A26",
":+	c #6A2723",
"<+	c #692620",
"[+	c #62211F",
"}+	c #692623",
"|+	c #6A2725",
"1+	c #702D29",
"2+	c #71312C",
"3+	c #612321",
"4+	c #6B2623",
"5+	c #692724",
"6+	c #6C2628",
"7+	c #732F30",
"8+	c #712D2D",
"9+	c #74302F",
"0+	c #6E2B29",
"a+	c #6D2B27",
"b+	c #692721",
"c+	c #69251E",
"d+	c #642726",
"e+	c #6F2A2A",
"f+	c #6A2522",
"g+	c #632422",
"h+	c #722E2E",
"i+	c #672628",
"j+	c #68292B",
"k+	c #5F242A",
"l+	c #6F2C34",
"m+	c #702B35",
"n+	c #63252B",
"o+	c #69292E",
"p+	c #6E2B31",
"q+	c #602725",
"r+	c #672927",
"s+	c #662A27",
"t+	c #692C29",
"u+	c #6B2E2B",
"v+	c #682C28",
"w+	c #682B27",
"x+	c #6E2D37",
"y+	c #77303B",
"z+	c #692934",
"A+	c #6A2528",
"B+	c #6D2729",
"C+	c #612529",
"D+	c #6F2E34",
"E+	c #6F2D34",
"F+	c #5C1F21",
"G+	c #612120",
"H+	c #6E3031",
"I+	c #6B2E2E",
"J+	c #712C2D",
"K+	c #712E2F",
"L+	c #69282D",
"M+	c #7A313A",
"N+	c #6A282E",
"O+	c #732E32",
"P+	c #763035",
"Q+	c #662722",
"R+	c #6E2D26",
"S+	c #6E2D27",
"T+	c #74312C",
"U+	c #74322C",
"V+	c #73312B",
"W+	c #6E2C25",
"X+	c #722B37",
"Y+	c #7B323E",
"Z+	c #6E272B",
"`+	c #70292D",
" @	c #7A353C",
".@	c #652322",
"+@	c #6D2924",
"@@	c #712E2C",
"#@	c #72302D",
"$@	c #6B2625",
"%@	c #702B2C",
"&@	c #732F31",
"*@	c #6A282D",
"=@	c #7B323B",
"-@	c #67262C",
";@	c #742F32",
">@	c #763134",
",@	c #5F221E",
"'@	c #61241F",
")@	c #5C221F",
"!@	c #5E211D",
"~@	c #642722",
"{@	c #62241F",
"]@	c #61231E",
"^@	c #61241E",
"/@	c #752B36",
"(@	c #853643",
"_@	c #7B313E",
":@	c #6E272C",
"<@	c #71292F",
"[@	c #68272D",
"}@	c #7E3840",
"|@	c #813942",
"1@	c #662123",
"2@	c #602020",
"3@	c #652526",
"4@	c #6B2A2C",
"5@	c #6E2B2B",
"6@	c #6E2927",
"7@	c #6A2624",
"8@	c #743030",
"9@	c #6A292D",
"0@	c #762E37",
"a@	c #69272B",
"b@	c #742F31",
"c@	c #62221A",
"d@	c #67261C",
"e@	c #68271D",
"f@	c #6A2B21",
"g@	c #682A20",
"h@	c #69291F",
"i@	c #6A291F",
"j@	c #67271D",
"k@	c #762D38",
"l@	c #7A303D",
"m@	c #752D34",
"n@	c #6B2830",
"o@	c #7E3740",
"p@	c #853D46",
"q@	c #722D35",
"r@	c #793139",
"s@	c #7C343D",
"t@	c #843C45",
"u@	c #823942",
"v@	c #803741",
"w@	c #702B29",
"x@	c #742F2F",
"y@	c #69292C",
"z@	c #732C34",
"A@	c #782F38",
"B@	c #682629",
"C@	c #742F30",
"D@	c #5E1F19",
"E@	c #67261E",
"F@	c #67271F",
"G@	c #68271F",
"H@	c #6B2820",
"I@	c #6C2A21",
"J@	c #6A281F",
"K@	c #66241A",
"L@	c #722C35",
"M@	c #863745",
"N@	c #792E3B",
"O@	c #712A31",
"P@	c #68252E",
"Q@	c #823B44",
"R@	c #853A45",
"S@	c #722D34",
"T@	c #752F35",
"U@	c #783239",
"V@	c #7F3941",
"W@	c #7C363E",
"X@	c #7F3840",
"Y@	c #7C363D",
"Z@	c #762F37",
"`@	c #6C2925",
" #	c #732F2C",
".#	c #652326",
"+#	c #6F2830",
"@#	c #652426",
"##	c #73302D",
"$#	c #5F2523",
"%#	c #622522",
"&#	c #612624",
"*#	c #652624",
"=#	c #662624",
"-#	c #692825",
";#	c #642523",
">#	c #66231D",
",#	c #6D2A35",
"'#	c #772E3A",
")#	c #732D33",
"!#	c #702A31",
"~#	c #62232C",
"{#	c #833B45",
"]#	c #863B47",
"^#	c #6A2A2F",
"/#	c #662425",
"(#	c #68282A",
"_#	c #6C2E30",
":#	c #6A261F",
"<#	c #6F2D27",
"[#	c #5D2123",
"}#	c #6F282E",
"|#	c #6E282F",
"1#	c #632323",
"2#	c #6E2B27",
"3#	c #692A27",
"4#	c #652723",
"5#	c #6F2E29",
"6#	c #71302A",
"7#	c #75332D",
"8#	c #72302A",
"9#	c #702E28",
"0#	c #702D26",
"a#	c #742E39",
"b#	c #803340",
"c#	c #722C37",
"d#	c #722C31",
"e#	c #742D33",
"f#	c #662A31",
"g#	c #843944",
"h#	c #89404B",
"i#	c #6C2B2C",
"j#	c #722F2E",
"k#	c #6E2D2A",
"l#	c #65231B",
"m#	c #6B2921",
"n#	c #591D1E",
"o#	c #652329",
"p#	c #672329",
"q#	c #5F2121",
"r#	c #6A2821",
"s#	c #642622",
"t#	c #682822",
"u#	c #622520",
"v#	c #6B2C26",
"w#	c #6A2A24",
"x#	c #6B2922",
"y#	c #69271F",
"z#	c #732A33",
"A#	c #7E333D",
"B#	c #6A2731",
"C#	c #712C31",
"D#	c #68262E",
"E#	c #853945",
"F#	c #863D48",
"G#	c #692525",
"H#	c #61211D",
"I#	c #672926",
"J#	c #6F2D29",
"K#	c #6D2B29",
"L#	c #6E2928",
"M#	c #6E2B2A",
"N#	c #6B2A28",
"O#	c #692826",
"P#	c #682929",
"Q#	c #6B2A2A",
"R#	c #65221F",
"S#	c #662625",
"T#	c #631F1F",
"U#	c #672221",
"V#	c #66221F",
"W#	c #5F231D",
"X#	c #65271F",
"Y#	c #60231C",
"Z#	c #5E221D",
"`#	c #5F211B",
" $	c #601D15",
".$	c #652320",
"+$	c #662522",
"@$	c #6B2927",
"#$	c #662623",
"$$	c #682320",
"%$	c #67221C",
"&$	c #6B2825",
"*$	c #702C29",
"=$	c #6F2C29",
"-$	c #6B2925",
";$	c #753232",
">$	c #6D2A29",
",$	c #6E2929",
"'$	c #6C2726",
")$	c #6A2724",
"!$	c #642821",
"~$	c #6A2B20",
"{$	c #65241A",
"]$	c #67261B",
"^$	c #642319",
"/$	c #622016",
"($	c #692726",
"_$	c #6B2523",
":$	c #6E2F2B",
"<$	c #6D2C2A",
"[$	c #6D2826",
"}$	c #5F211C",
"|$	c #63231D",
"1$	c #61201C",
"2$	c #622421",
"3$	c #62231F",
"4$	c #612320",
"5$	c #682B2D",
"6$	c #732F2F",
"7$	c #722E2F",
"8$	c #672629",
"9$	c #5C211E",
"0$	c #672922",
"a$	c #632620",
"b$	c #692821",
"c$	c #682720",
"d$	c #62241E",
"e$	c #5F221D",
"f$	c #612426",
"g$	c #722F2C",
"h$	c #72302E",
"i$	c #602426",
"j$	c #6A281E",
"k$	c #6B291F",
"l$	c #68271E",
"m$	c #6A2820",
"n$	c #692720",
"o$	c #6A2720",
"p$	c #783435",
"q$	c #702E30",
"r$	c #793638",
"s$	c #712D2B",
"t$	c #5E2422",
"u$	c #6F2F29",
"v$	c #74332D",
"w$	c #72302B",
"x$	c #6B2721",
"y$	c #66292B",
"z$	c #6B2B2C",
"A$	c #702C2A",
"B$	c #722E2D",
"C$	c #652729",
"D$	c #642117",
"E$	c #67241B",
"F$	c #652319",
"G$	c #66251B",
"H$	c #68261D",
"I$	c #66241B",
"J$	c #67241C",
"K$	c #65221A",
"L$	c #7A3738",
"M$	c #793639",
"N$	c #682A2D",
"O$	c #6D2B23",
"P$	c #6C2B25",
"Q$	c #68261E",
"R$	c #6B2B2D",
"S$	c #702B2A",
"T$	c #652724",
"U$	c #642724",
"V$	c #672B28",
"W$	c #652925",
"X$	c #602421",
"Y$	c #6C2D2E",
"Z$	c #7B393B",
"`$	c #5C1E19",
" %	c #5F221B",
".%	c #5E201B",
"+%	c #64241A",
"@%	c #66271D",
"#%	c #64241C",
"$%	c #672A2C",
"%%	c #6C2C2E",
"&%	c #763335",
"*%	c #702F29",
"=%	c #73322C",
"-%	c #632420",
";%	c #7A3636",
">%	c #773434",
",%	c #773637",
"'%	c #702E2A",
")%	c #5D201A",
"!%	c #66251C",
"~%	c #68281E",
"{%	c #6B2A20",
"]%	c #69281F",
"^%	c #65261C",
"/%	c #692A2D",
"(%	c #6B2A2D",
"_%	c #682523",
":%	c #6B2524",
"<%	c #68292A",
"[%	c #783235",
"}%	c #642621",
"|%	c #652722",
"1%	c #602420",
"2%	c #612420",
"3%	c #632622",
"4%	c #5F201C",
"5%	c #642526",
"6%	c #682829",
"7%	c #692B2C",
"8%	c #521D1C",
"9%	c #5D1F1B",
"0%	c #61231F",
"a%	c #612427",
"b%	c #602327",
"c%	c #602224",
"d%	c #69292D",
"e%	c #6C2B2B",
"f%	c #652728",
"g%	c #662422",
"h%	c #712D2C",
"i%	c #692A2B",
"j%	c #6B2A31",
"k%	c #763036",
"l%	c #6F2C33",
"m%	c #712D36",
"n%	c #732E36",
"o%	c #752C35",
"p%	c #742D35",
"q%	c #642A2D",
"r%	c #6D2E2E",
"s%	c #7E333F",
"t%	c #7D323D",
"u%	c #6A282F",
"v%	c #6D2C2C",
"w%	c #6E2A2A",
"x%	c #5F1D19",
"y%	c #68241D",
"z%	c #6B2821",
"A%	c #6C2A24",
"B%	c #692926",
"C%	c #672825",
"D%	c #682622",
"E%	c #712E2E",
"F%	c #69292A",
"G%	c #6E2B28",
"H%	c #662728",
"I%	c #702F30",
"J%	c #6C2A32",
"K%	c #7A3039",
"L%	c #7C323B",
"M%	c #7D323C",
"N%	c #7D333D",
"O%	c #7C333C",
"P%	c #682F32",
"Q%	c #753234",
"R%	c #763434",
"S%	c #833442",
"T%	c #833743",
"U%	c #702C34",
"V%	c #722D2E",
"W%	c #63221E",
"X%	c #6B2924",
"Y%	c #712F2B",
"Z%	c #74302D",
"`%	c #712F2C",
" &	c #722E2C",
".&	c #702A28",
"+&	c #6F2D2D",
"@&	c #763334",
"#&	c #66282A",
"$&	c #6E2C2C",
"%&	c #632628",
"&&	c #6C2F30",
"*&	c #65262C",
"=&	c #69272E",
"-&	c #6D2932",
";&	c #702B34",
">&	c #702A34",
",&	c #6F2933",
"'&	c #6F2B32",
")&	c #692D31",
"!&	c #743233",
"~&	c #883A47",
"{&	c #873B47",
"]&	c #733038",
"^&	c #732E30",
"/&	c #60211E",
"(&	c #602422",
"_&	c #5F2322",
":&	c #612828",
"<&	c #602627",
"[&	c #602626",
"}&	c #672523",
"|&	c #702D2E",
"1&	c #793637",
"2&	c #6D2A2C",
"3&	c #6F2D2C",
"4&	c #6E282A",
"5&	c #702A2C",
"6&	c #702C2E",
"7&	c #722D2F",
"8&	c #722C2F",
"9&	c #6C2729",
"0&	c #6B2526",
"a&	c #763336",
"b&	c #783437",
"c&	c #703031",
"d&	c #8A3D4A",
"e&	c #743039",
"f&	c #68261F",
"g&	c #6C2C22",
"h&	c #65251C",
"i&	c #65241B",
"j&	c #652219",
"k&	c #621F15",
"l&	c #733031",
"m&	c #7B3738",
"n&	c #702D2F",
"o&	c #69262A",
"p&	c #712A30",
"q&	c #70292F",
"r&	c #712A2F",
"s&	c #712A2E",
"t&	c #6F292C",
"u&	c #722D30",
"v&	c #6B2C2E",
"w&	c #8A3E4A",
"x&	c #863946",
"y&	c #76333B",
"z&	c #672822",
"A&	c #6B2B20",
"B&	c #632116",
"C&	c #71302D",
"D&	c #672829",
"E&	c #723032",
"F&	c #63262C",
"G&	c #6A2C30",
"H&	c #65282D",
"I&	c #642A2F",
"J&	c #64282C",
"K&	c #66292C",
"L&	c #6E2C2E",
"M&	c #813642",
"N&	c #702C33",
"O&	c #732E2F",
"P&	c #521B1A",
"Q&	c #60221D",
"R&	c #60211C",
"S&	c #632520",
"T&	c #60201D",
"U&	c #6A292A",
"V&	c #783434",
"W&	c #77343A",
"X&	c #7A343A",
"Y&	c #7A363B",
"Z&	c #7A383D",
"`&	c #79373B",
" *	c #79373A",
".*	c #713235",
"+*	c #713032",
"@*	c #682426",
"#*	c #712C2B",
"$*	c #622323",
"%*	c #7D333E",
"&*	c #61201B",
"**	c #6A2822",
"=*	c #702D28",
"-*	c #732F2B",
";*	c #712D2A",
">*	c #722D2B",
",*	c #682727",
"'*	c #692522",
")*	c #672724",
"!*	c #632626",
"~*	c #622729",
"{*	c #6C2E35",
"]*	c #76373D",
"^*	c #75363C",
"/*	c #733138",
"(*	c #733339",
"_*	c #733439",
":*	c #6B2C31",
"<*	c #67282C",
"[*	c #602122",
"}*	c #672624",
"|*	c #5F201F",
"1*	c #6F2A34",
"2*	c #742C35",
"3*	c #6C282E",
"4*	c #652524",
"5*	c #60211D",
"6*	c #6A2721",
"7*	c #6D302F",
"8*	c #692C2C",
"9*	c #6A2A2A",
"  . + @ # $ % & * = - ; > , ' ) ! ~ { $ ] ] ^ / ( _ : < [ } | 1 ",
"2 3 4 5 6 7 8 9 0 a b c d e f g h i j k l m n o p q r s 7 t q u ",
"v w x y z A B C D E F G H I J K L M N O P Q R S T U V W X Y Z ` ",
" ...+.@.#.$.%.&.0 E *.=.-.;.>.,.'.).!.~.{.].^./.(._.:.<.[.}.|.1.",
"2.3.4.5.6.7.6.8.0 9.0.a.[.I b.c.d.e.f.g.h.i.j.k.) l.m.n.o.p.q.r.",
"s.t.u.v.w.x.) y.z.A.B.C.5 D.-.E.F.G.H.I.~ J.K.L.R l.M.N.O.P.Q.1.",
"2 3 R.S.T.U.V.W.X.Y.Z.`. +.+++-.@+#+$+%+&+*+=+-+;+>+,+'+)+!+u ~+",
"{+]+^+/+(+_+:+<+[+}+|+1+2+3+4+5+6+7+8+9+0+a+b+c+d+e+| f+_+g+[.h+",
"i+j+k+l+m+n+o+p+q+r+s+t+u+u+v+w+x+y+z+A+B+C+D+E+F+G+p.# H+@ I+I+",
"J+K+L+M+%.N+O+P+Q+R+S+*+T+U+V+W+X+{.Y+Z+`+L+ @6..@+@4 @@#@O.$@}+",
"%@&@*@M+=@-@;@>@,@'@)@!@~@{@]@^@/@(@_@:@<@[@}@|@1@2@3@4@5@K.6@7@",
"-.8@9@0@=@a@b@&@c@d@e@f@g@h@i@j@k@(@l@<@m@n@o@p@q@r@s@|@t@u@v@j.",
"w@x@y@z@A@B@x@C@D@E@F@G@H@I@J@K@L@M@N@m@O@P@Q@R@S@T@U@V@W@X@Y@Z@",
"`@ #.#+#z@@###A $#%#&#*#=#-#;#>#,#{.'#)#!#~#{#]#^#/#(#] ] _#) u.",
":#<#[#}#|#1#2#3#4#<#5#6#7#8#9#0#a#b#c#d#e#f#g#h#i#+@6@#@T.j#0+k#",
"l#m#n#o#p#q#r#s#F@t#u#~@v#w#x#y#z#A#B#`+C#D#E#F#G#H#s#I#a+J#:+<+",
"[+*#K#L#X M#N#O#P#Q#& R#S#T#U#V#W#X#Y#Z#W#`#D@ $.$+$  3#2#@$#$$$",
"%$b++@&$*$=$4 -$_ ;$j+>$,$/#'$)$!$~$d@{$d@]$^$/$($7 _$:$`.<$M#[$",
"}$|$]+1$2$%#3$4$j+U 5$6$7$8$,$0+9$0$a$b$x#c$d$e$f$8+s g$h$i$8+-.",
"K@j$k$l$m$n$o$>#R p$q$b.r$) A.s$t$9#u$v$v$w$9#x$y$b.z$A$B$C$J 8@",
"D$E$F$G$H$I$J$K$b L$:._.M$N$=.s$a$O$=+P$9#*+9#Q$*.p$R$S$A.j+1.b.",
"T$2$U$r+t+V$W$X$Y$q.M.&@Z$*.M#s$`$ %.%+%@%{$+%#%$%E %%++K.R &%b.",
"=+<#*%w$U+8#=%-%| ;%$ >%,%%%O.'%)%!%~%l$G@{%]%^%/%a (%_%:%<%[%b@",
"}%|%1%2%3%|%|%4%5%6%T 5@7%P#J#5#8%}$!@9%0%]@]@`$a%(%b%> ; c%d%a@",
"A e%f%g%:+}.h%i%j%k%l%m%n%o%p%3.q%<.r%s%t%u%v%w%x%K$y%z%A%B%C%D%",
"E%u F%M#G%H%q I%J%K%K%L%M%N%O%r@P%Q%R%S%T%U%` V%W%b+X%Y%Z%`% &.&",
"+&@&#&$&s$%&~+&&*&=&-&;&>&,&;&'&)&r$!&~&{&]&K ^&/&-%(&_&:&<&[&}&",
"|&1&2&$&3&B.1.E 4&5&6&7&8&9&6+0&a&b&c&d&]#e&M$&%f&g&h&i&!%I$j&k&",
"l&m&n&h+3&(#m&l.o&`+p&q&r&s&t&9&u&&%v&w&x&y&1&@&z&f@A&l$H$H$^$B&",
"8@_.n&B$C&D&q.E&F&G&H&I&J&K&= 4@L&7$i%T%M&N&O&h+P&Q&R&S&|%-%-%T&",
"9+9.U&S$Y%P#V&I%W&X&Y&Z&`& *.*+*@*#*$*t%%*2.,$c &*y#**=*-*;*>*R.",
",*6%c%'*)*!*3@~*{*]*^*/*(*_*:*<*[*}*|*1*2*3*4*R#5*6*C%}.7*8*i%9*"};
