/* XPM */
static char * map_wall_xpm[] = {
"32 32 193 2",
"  	c #101010",
". 	c #111111",
"+ 	c #0F0F0F",
"@ 	c #0E0E0E",
"# 	c #181818",
"$ 	c #191919",
"% 	c #151515",
"& 	c #161616",
"* 	c #171717",
"= 	c #0B0B0B",
"- 	c #1A1A1A",
"; 	c #242424",
"> 	c #303030",
", 	c #272727",
"' 	c #2E2E2E",
") 	c #333333",
"! 	c #2A2A2A",
"~ 	c #242526",
"{ 	c #202325",
"] 	c #171B1E",
"^ 	c #161B1F",
"/ 	c #141414",
"( 	c #121212",
"_ 	c #1F1F1F",
": 	c #292929",
"< 	c #252525",
"[ 	c #1C1C1C",
"} 	c #1E1E1E",
"| 	c #1D1D1D",
"1 	c #131313",
"2 	c #282828",
"3 	c #202121",
"4 	c #1D1F21",
"5 	c #161A1D",
"6 	c #13181B",
"7 	c #0D0D0D",
"8 	c #0C0C0C",
"9 	c #0F1011",
"0 	c #0D1011",
"a 	c #0B0E10",
"b 	c #0A0A0A",
"c 	c #060606",
"d 	c #070707",
"e 	c #080808",
"f 	c #050505",
"g 	c #090909",
"h 	c #050608",
"i 	c #0C0D0D",
"j 	c #08090A",
"k 	c #050506",
"l 	c #1B1B1B",
"m 	c #141516",
"n 	c #0C0D0F",
"o 	c #090B0E",
"p 	c #131416",
"q 	c #0D0E10",
"r 	c #0A0C0F",
"s 	c #111213",
"t 	c #0A0E11",
"u 	c #101011",
"v 	c #0B0C0D",
"w 	c #090C0E",
"x 	c #212121",
"y 	c #101012",
"z 	c #09090B",
"A 	c #080A0D",
"B 	c #222222",
"C 	c #0E0F10",
"D 	c #080809",
"E 	c #080A0B",
"F 	c #363636",
"G 	c #383838",
"H 	c #353535",
"I 	c #313131",
"J 	c #2F2F2F",
"K 	c #232323",
"L 	c #262626",
"M 	c #202020",
"N 	c #1B1B1C",
"O 	c #17181A",
"P 	c #121517",
"Q 	c #111518",
"R 	c #4E4E4E",
"S 	c #3C3C3C",
"T 	c #393939",
"U 	c #2B2B2B",
"V 	c #1E1F1F",
"W 	c #1A1B1D",
"X 	c #0F1113",
"Y 	c #111519",
"Z 	c #585858",
"` 	c #4D4D4D",
" .	c #121518",
"..	c #0F1316",
"+.	c #474747",
"@.	c #414141",
"#.	c #202021",
"$.	c #1F2123",
"%.	c #191D20",
"&.	c #151A1D",
"*.	c #545454",
"=.	c #4A4A4A",
"-.	c #515151",
";.	c #404040",
">.	c #444444",
",.	c #2C2C2C",
"'.	c #202224",
").	c #181C1F",
"!.	c #151A1E",
"~.	c #505050",
"{.	c #575757",
"].	c #535353",
"^.	c #484848",
"/.	c #4C4C4C",
"(.	c #464646",
"_.	c #3D3D3D",
":.	c #3F3F3F",
"<.	c #454545",
"[.	c #424242",
"}.	c #232425",
"|.	c #1A1E21",
"1.	c #161C1F",
"2.	c #666666",
"3.	c #676767",
"4.	c #5E5E5E",
"5.	c #565656",
"6.	c #4F4F4F",
"7.	c #4B4B4B",
"8.	c #525252",
"9.	c #3E3E3E",
"0.	c #343434",
"a.	c #323232",
"b.	c #2D2D2D",
"c.	c #2C2C2D",
"d.	c #252729",
"e.	c #1F2427",
"f.	c #1B2327",
"g.	c #616161",
"h.	c #6B6B6B",
"i.	c #636363",
"j.	c #5B5B5B",
"k.	c #494949",
"l.	c #3A3A3A",
"m.	c #373737",
"n.	c #2E2E2F",
"o.	c #2A2A2B",
"p.	c #212325",
"q.	c #1A2226",
"r.	c #5D5D5D",
"s.	c #5F5F5F",
"t.	c #646464",
"u.	c #555555",
"v.	c #434343",
"w.	c #222223",
"x.	c #16191C",
"y.	c #141A1E",
"z.	c #5A5A5A",
"A.	c #595959",
"B.	c #3B3B3B",
"C.	c #1C1E20",
"D.	c #14191D",
"E.	c #1C1D1D",
"F.	c #1C1D1F",
"G.	c #12171A",
"H.	c #191A1A",
"I.	c #1B1D1E",
"J.	c #171C1E",
"K.	c #101417",
"L.	c #1E2022",
"M.	c #171D21",
"N.	c #222323",
"O.	c #181F23",
"P.	c #232324",
"Q.	c #1F2224",
"R.	c #141A1D",
"S.	c #1E1E1F",
"T.	c #1B1C1E",
"U.	c #15181B",
"V.	c #1F1F20",
"W.	c #131619",
"X.	c #11171A",
"Y.	c #252627",
"Z.	c #1C1E1F",
"`.	c #14171A",
" +	c #13191C",
".+	c #1D2124",
"++	c #151B1E",
"@+	c #232424",
"#+	c #222527",
"$+	c #242A2D",
"%+	c #262627",
"&+	c #252A2D",
"*+	c #1C2327",
"  . + @ . # $ $ $ # % & * % . = - ; $ + # > , * $ ' ) ! ~ { ] ^ ",
"+   + / / $ # % # $ * * * / ( _ : < [ } | ! & & 1 * > 2 3 4 5 6 ",
"7 @ . 7 8 1 % 1 ( % / ( + + . _ _ [ & # $ @ @ + 8 = / % . 9 0 a ",
"b @ .   c + ( . 7 b . 7 d e f 8 % % .   + 7 8 = b g 7 - g d d h ",
"7 + 1 * / .     8 e 7 8 e e f e + & . + + + + + 8 g 7 [ / i j k ",
"/ / % * $ # & & ( b =   + = 8 ( 1 / 1 + . l # / & & # [ * m n o ",
". 1 ( . ( % % / . b +   @ e b . + + * 7 @ l % + @ % * $ % p q r ",
"+   . . . & & & ( . (   @ 7 b   7 + * / + # .   b b / * ( s q t ",
"l [ - & # l & & 1 - - &       / / / ( 1 ( l [ $ g g @ ( . u v w ",
"l x | & - [ * . @ % $ & ( +   & & %   . + + $ # 7 + ( +   y z A ",
"| B | / % [ 1 7 @ 1 % % . @ . # $ %         . % . 1 ( 8 b C D E ",
"F G H I J } K L 2 2 < x x B _ # $ M } [ [ B B } [ } _ } N O P Q ",
"R S T H ; - - U ' U L B | < K [ } B K | | K x | $ M B B V W X Y ",
"Z ` T ; [ [ # _ J L ; B l } ; } } } _ _ | x _ | - [ B x } W  ...",
"G T +.: L K [ x @.L , < } _ H , _ B 2 2 ' < < , } } < K #.$.%.&.",
"J R *.=.U L K R -.@.! < } ) ;.>., B L > F T ! 2 _ ; ,.! K '.).!.",
"~.{.].~.^.,.=.].~./.(., H _.:.<.[., > F G _._.,.x , : 2 }.'.|.1.",
"2.3.4.{.5.R R ` R 6.-.7.-.8.R +.(._.) ) H 9._.0.a.H H b.c.d.e.f.",
"g.h.i.j.k.` *.~.R ` 7.^.<.8.6.^.:.l.a.H G 9.a.; I F m.n.o.p.5 q.",
"r.s.t.` [.` u.-.~.<.^.^.v.(./.9.T T > > l.a.< , ,.,.0.! w.'.x.y.",
"z.A.@.5.5.Z Z 5.l.^.(.v.;.;.I B.:.l., , < | } _ ; < M } _ C.).D.",
"5.G B 0.Z A.{.a._ I <.v.[.' l x l.G : ; x % } M K _ & * E.F.%.G.",
") ; M } 0.5.) | _ B U ;.b.* l } B 0.L B x / $ B M - - - H.I.J.K.",
">.>.9.9.@.>._.S T m.m.> 0.G ) 2 U b.2 2 : : 2 , x x M M _ L.|.M.",
"~.` <.v.>.^.+.;.9._.) a.T _.m.! ' > , ! U b.U ! | M M K N.p.|.O.",
"-.6.(.v.>.^.k.>._.H > ) S 9.m.U J > 2 2 U ! ! ! | M M < P.Q.%.R.",
"a.H /.J b.,., U (., _ M K < l.L B K x x a.; B K B B < B S.T.U.G.",
"I 5.A.~.: M [ ^.-./.L - | [.^.9.; _ _ ) l.b.< B K < , L V.W W.X.",
"Z j.A.A.8., v.R ~.-.6.: [.7.=.(.v.L I l.m.b.I 2 ; < L , Y.Z.`. +",
"A.Z 5.{.A.*./.` -.5.{.8.9.T T l.S @.0.a.) F F _.! ; ; K N.{ .+++",
"r.z.5.5.A.{.*.R ~.*.].].8.S F 0.[.(.9.H a.0.B.:.T U < B @+#+$+M.",
"s.s.Z z.A.A.z.Z -.*.u.u.u.]._.[.^.(.:.v.G m.B.B.l.G U < %+#+&+*+"};
