/* XPM */
static char * player_xpm[] = {
"8 8 2 1",
" 	c None",
".	c #FFEB3B",
"   ..   ",
" ...... ",
" ...... ",
"........",
"........",
" ...... ",
" ...... ",
"   ..   "};
