/* XPM */
static char *_0eed301fb0f4de3ba2924b4c98ce7fckuZrxwbX7uibY0DS[] = {
/* columns rows colors chars-per-pixel */
"17 16 205 2 ",
"   c #290D1C",
".  c #2A0E1D",
"X  c #3D0C1F",
"o  c #35151A",
"O  c #37141B",
"+  c #350920",
"@  c #4B0005",
"#  c #430208",
"$  c #4F080E",
"%  c #4F0A0F",
"&  c #51080F",
"*  c #5F0C08",
"=  c #4B100A",
"-  c #5A160B",
";  c #470214",
":  c #480111",
">  c #450817",
",  c #470916",
"<  c #4A0911",
"1  c #4C0813",
"2  c #4A0C11",
"3  c #4B0917",
"4  c #4A0B16",
"5  c #4E0A15",
"6  c #4C0A16",
"7  c #4B0C17",
"8  c #45041A",
"9  c #4C071A",
"0  c #46081D",
"q  c #4A0A1B",
"w  c #4C0D18",
"e  c #4D0D1B",
"r  c #560313",
"t  c #520910",
"y  c #510917",
"u  c #520F16",
"i  c #550E16",
"p  c #540A1B",
"a  c #4C1F1C",
"s  c #4C1E1E",
"d  c #521512",
"f  c #571314",
"g  c #670E06",
"h  c #660A0D",
"j  c #740F03",
"k  c #730909",
"l  c #6C1003",
"z  c #6C110E",
"x  c #6B170C",
"c  c #6E150D",
"v  c #6B190D",
"b  c #731400",
"n  c #73100B",
"m  c #75120C",
"M  c #7A1909",
"N  c #6B0E18",
"B  c #6A1010",
"V  c #6A1210",
"C  c #6B1311",
"Z  c #6D1312",
"A  c #6A1713",
"S  c #6F1411",
"D  c #6C1412",
"F  c #6C1413",
"G  c #721415",
"H  c #731A14",
"J  c #761914",
"K  c #781913",
"L  c #4E211C",
"P  c #4C231D",
"I  c #4C201F",
"U  c #4C241C",
"Y  c #50201E",
"T  c #542D1E",
"R  c #7E241C",
"E  c #490921",
"W  c #510921",
"Q  c #541625",
"!  c #521920",
"~  c #4B2220",
"^  c #4D2120",
"/  c #532B21",
"(  c #81190E",
")  c #892C03",
"_  c #81200F",
"`  c #86280C",
"'  c #94340E",
"]  c #98350C",
"[  c #983B0F",
"{  c #8C2D11",
"}  c #8E2C13",
"|  c #8E291F",
" . c #8F2A1E",
".. c #962E11",
"X. c #942C13",
"o. c #962E13",
"O. c #932F15",
"+. c #962C16",
"@. c #982B16",
"#. c #922F18",
"$. c #922F1A",
"%. c #962D18",
"&. c #952F19",
"*. c #972C1A",
"=. c #922B1C",
"-. c #982D19",
";. c #992F19",
":. c #982F1A",
">. c #9E2F1B",
",. c #9E2D1D",
"<. c #8F3118",
"1. c #913212",
"2. c #953012",
"3. c #943112",
"4. c #933513",
"5. c #963610",
"6. c #913216",
"7. c #983110",
"8. c #993012",
"9. c #983013",
"0. c #993213",
"q. c #9D3613",
"w. c #993116",
"e. c #9F3316",
"r. c #983414",
"t. c #983515",
"y. c #9B3415",
"u. c #9A3517",
"i. c #9E3515",
"p. c #9D3416",
"a. c #9C3516",
"s. c #9A3916",
"d. c #9D3915",
"f. c #9E3E14",
"g. c #953119",
"h. c #973118",
"j. c #963218",
"k. c #97311A",
"l. c #96321A",
"z. c #96311D",
"x. c #993118",
"c. c #99301A",
"v. c #99331A",
"b. c #98321B",
"n. c #9B3618",
"m. c #98341A",
"M. c #9E3619",
"N. c #9E341A",
"B. c #9C371B",
"V. c #9F371A",
"C. c #9A311C",
"Z. c #9F321D",
"A. c #953F1C",
"S. c #98391B",
"D. c #9D3919",
"F. c #A43017",
"G. c #A03018",
"H. c #A33A1C",
"J. c #A83A19",
"K. c #863520",
"L. c #853720",
"P. c #8D3622",
"I. c #893922",
"U. c #8E3A22",
"Y. c #953326",
"T. c #9A3022",
"R. c #9F3621",
"E. c #963A21",
"W. c #AB3825",
"Q. c #9B471B",
"!. c #99411D",
"~. c #A24317",
"^. c #A54016",
"/. c #A7441D",
"(. c #AB431C",
"). c #AE401F",
"_. c #A54D1D",
"`. c #B24F16",
"'. c #B3491F",
"]. c #AD521B",
"[. c #8B402B",
"{. c #914224",
"}. c #9C4625",
"|. c #9F4128",
" X c #A34720",
".X c #A64727",
"XX c #A84726",
"oX c #A44B23",
"OX c #A74F21",
"+X c #A84820",
"@X c #A94C20",
"#X c #A84D20",
"$X c #A84D21",
"%X c #AA4F23",
"&X c #AE4D20",
"*X c #AF4B27",
"=X c #A44529",
"-X c #A7472E",
";X c #A14828",
":X c #B24F28",
">X c #A75122",
",X c #AB5023",
"<X c #B15226",
"1X c #BC5324",
"2X c #BC5127",
/* pixels */
">X.X&X].;Xs !.`.&X,X%X>X%X%X_.<X/ ",
"5.R.i.] _ q =X1XM.M.r.M.D.r.G.H.L ",
"3.T.X.O.n 8 |.J.:.:.*.+.x.+.@.Z.^ ",
"4.$.6.E.K > }.[ g.C.g.g.g.h.w.Z.s ",
"r.g.S.<.m # oX~.3.+.X.3.r.w.8.G.L ",
"*.=.$.M k & .XB.@.x.x.g.C.x.x.G.~ ",
"G Z v * N Q K.R V F C z C C C G O ",
"y < = 2 p X - i 3 e w 7 w 6 < 5 . ",
" X X X_. X X/.oX-X+X_.f K.:XQ.*X/ ",
"d.d.d.d.d.d.d.d.r.i.) t U.2Xf.J.L ",
"+.X.+.X.X.3.X...8.v.b : I.'.' F.~ ",
"z.C.z.z.z.z.z.z.1.Y.H E [./.` ,.a ",
"g.w.g.x.x.g.x.g.i.=.H ; {.(.{ W.L ",
"w.w.w.w.w.w.w.w.t.K j @ !.).} e.~ ",
"c c c c c c c c v h l f K.| A l o ",
"9 9 9 3 9 9 9 9 > W & + d r 0 $ . "
};
